<svg xmlns="http://www.w3.org/2000/svg" viewBox="0 0 260.01 92.82"><defs><style>.cls-1{fill:#fff;}</style></defs><title>hand</title><g id="Layer_2" data-name="Layer 2"><g id="Layer_1-2" data-name="Layer 1"><path class="cls-1" d="M91.36,6.16c.4-.12,1-.63,1.34-.41-.3.28-.37.8-.72,1C91.8,6.55,91.43,6.51,91.36,6.16Z"/><path class="cls-1" d="M89.4,6.58c.85.15,1.58.41,2.37.61a1.76,1.76,0,0,1-.51,1.14C90.77,7.67,89.52,7.26,89.4,6.58Z"/><path class="cls-1" d="M103.53,7.3A7.22,7.22,0,0,0,105.18,7c-.15.46-.17,1.06-.51,1.34C104.36,7.92,103.81,7.75,103.53,7.3Z"/><path class="cls-1" d="M90.85,10.29A13.25,13.25,0,0,1,88.37,7.4c.93,0,2,.86,2.79,1.34A3.71,3.71,0,0,1,90.85,10.29Z"/><path class="cls-1" d="M116.63,7.71c-.75.12-1.73.62-2.06-.21C115.31,7.52,116.23,7.17,116.63,7.71Z"/><path class="cls-1" d="M104.36,10.29c-1-1-2.25-1.74-3.2-2.79A5.71,5.71,0,0,1,104.67,9,5.85,5.85,0,0,1,104.36,10.29Z"/><path class="cls-1" d="M112.1,7.71a2.51,2.51,0,0,1,2.26.62,6.28,6.28,0,0,0-1.13.41C112.94,8.31,112.38,8.15,112.1,7.71Z"/><path class="cls-1" d="M112.61,9a1.31,1.31,0,0,1-.82.82c-.52-.58-1.21-1-1.76-1.54C111.17,7.85,111.86,8.62,112.61,9Z"/><path class="cls-1" d="M111.58,10.19c-.46.16-.65.58-1.13.72-.63-.62-1.37-1.11-2-1.76C109.53,8.42,110.94,9.53,111.58,10.19Z"/><path class="cls-1" d="M125.5,10.7A6.27,6.27,0,0,0,124,11c-.26-.41-1.42-1-1.14-1.24C123.62,10.18,125.09,9.92,125.5,10.7Z"/><path class="cls-1" d="M125.4,12.25a5.35,5.35,0,0,1-.72-.62c.95.09,2,0,2.48.62A4.73,4.73,0,0,0,125.4,12.25Z"/><path class="cls-1" d="M130.25,12.66c-.68-.13-2.43-.23-2.17-.62C128.66,12.39,129.9,12.09,130.25,12.66Z"/><path class="cls-1" d="M104.26,42.16c-2.52-2.45-2.69-6.23-4.34-9.28s-4.87-4-7.42-6c4.85.21,6.69,4,8.76,7.63C102.72,37.05,104.52,39.23,104.26,42.16Z"/><path class="cls-1" d="M128.7,29.27c-.32-.45-.92-1.67-.41-2.27A3.74,3.74,0,0,1,128.7,29.27Z"/><path class="cls-1" d="M122.51,27.72c-.35,0-.45-.31-.51-.62.14-.14.72-.19.72.11C122.49,27.22,122.5,27.47,122.51,27.72Z"/><path class="cls-1" d="M119.94,27.82a1.08,1.08,0,0,1,1.75.73C120.92,28.84,120.31,28.25,119.94,27.82Z"/><path class="cls-1" d="M170.07,28.34c1.48,3.24,4.89,5.62,4.43,10.11C173.08,35.16,170,32.41,170.07,28.34Z"/><path class="cls-1" d="M96.11,36a22.44,22.44,0,0,0-6.5-7.53C93.28,29,95.39,32.49,96.11,36Z"/><path class="cls-1" d="M117.87,28.65a1.06,1.06,0,0,1,1.65.62C118.79,29.58,118.27,29,117.87,28.65Z"/><path class="cls-1" d="M127.46,31.44c-.63-.53-.39-1.94-.1-2.69C127.69,29.35,128.22,31,127.46,31.44Z"/><path class="cls-1" d="M115.6,29.48c.62-.14,1.49-.64,1.55.3A1.63,1.63,0,0,1,115.6,29.48Z"/><path class="cls-1" d="M173.06,40.92c-1.56-3.87-4.83-7.13-5.06-11.65,1.29,2.89,4.11,5.69,5.16,8.87C173.4,38.86,173.65,40.26,173.06,40.92Z"/><path class="cls-1" d="M138.5,32c-.3-.45-.45-2,.41-2C139.23,30.68,139.19,31.72,138.5,32Z"/><path class="cls-1" d="M125.71,32.67c-.88-.2-.76-2.19-.21-2.68A3.92,3.92,0,0,1,125.71,32.67Z"/><path class="cls-1" d="M97.45,33.6A11.86,11.86,0,0,1,94.66,30C96,30.8,97.5,31.41,97.45,33.6Z"/><path class="cls-1" d="M130.87,30.2c.34.45.34,1.86-.21,2.06C130.09,31.81,130.11,30.42,130.87,30.2Z"/><path class="cls-1" d="M91.16,37c-1.78-1.77-3.77-4.22-5.68-6.19C88.45,31.8,90.12,34.09,91.16,37Z"/><path class="cls-1" d="M167.9,41.34c-1.55-3.54-3.81-6.37-5.05-10.21C165.27,33.59,168.47,36.9,167.9,41.34Z"/><path class="cls-1" d="M159.44,42.78c.93,1.85,2.42,4.08,1.45,6.09-2.61-5.39-5.93-11.25-8-17.74A86.93,86.93,0,0,1,159.44,42.78Z"/><path class="cls-1" d="M152.22,39.17c1.31,2.58,3.48,5.66,3.92,8.36a2.69,2.69,0,0,1-.31,2.06c-2.51-6.29-6.78-11.37-8.15-18.46C149.08,33.57,150.68,36.12,152.22,39.17Z"/><path class="cls-1" d="M136.85,33.7c-.27-.73-.53-2.07.1-2.57C137.39,31.62,137.71,33.42,136.85,33.7Z"/><path class="cls-1" d="M123.24,31.13h.31a4,4,0,0,1,.3,2.88C123,33.67,122.87,32.15,123.24,31.13Z"/><path class="cls-1" d="M156.55,42.47c.93,1.88,2.5,4,1.14,5.78-1.93-6-6.26-10.25-7.22-16.92C152.4,34.38,154.71,38.74,156.55,42.47Z"/><path class="cls-1" d="M160.37,31.44c2.5,3.16,6.31,6.77,6.09,12C164.45,39.46,161.74,35.67,160.37,31.44Z"/><path class="cls-1" d="M159.85,38.24c1.57,2.95,3.57,5.7,3,9.08-2.35-5-5.61-10.15-6.81-15.58C157.19,33.61,158.54,35.77,159.85,38.24Z"/><path class="cls-1" d="M162,37.42c1.38,2.49,3.29,4.83,2.68,8-2.08-4.48-5.13-8.55-6.29-13.61A36.34,36.34,0,0,1,162,37.42Z"/><path class="cls-1" d="M121.28,32a2.78,2.78,0,0,1,.41,3.3C121.17,34.67,120.26,32.75,121.28,32Z"/><path class="cls-1" d="M135.1,35.25c-.39-.69-1-2.29-.21-3C135.33,32.89,135.9,34.62,135.1,35.25Z"/><path class="cls-1" d="M88.78,37.31a22.22,22.22,0,0,1-4.12-5A7.08,7.08,0,0,1,88.78,37.31Z"/><path class="cls-1" d="M109.72,32.88c.92,0,1.71.15,1.86.93-.57-.15-1.16-.29-1.75-.42C109.91,33.1,109.68,33.13,109.72,32.88Z"/><path class="cls-1" d="M119.63,36.39c-.5-.63-1.28-2.57-.21-3.2C119.93,34,120.56,35.58,119.63,36.39Z"/><path class="cls-1" d="M87,38.24a8.48,8.48,0,0,1-3.82-5A8,8,0,0,1,87,38.24Z"/><path class="cls-1" d="M107.56,34.12c0-.2-.12-.23-.11-.42.41-.29,1.24-.25,1.34.31A4.27,4.27,0,0,0,107.56,34.12Z"/><path class="cls-1" d="M144,33.91c1.28,2.33,2.7,4.8,4,7.43,1.63,3.24,3.58,6.57,3.61,10.31-2.69-5.46-6.24-10.73-7.73-17.53C143.89,34,143.87,33.91,144,33.91Z"/><path class="cls-1" d="M117.05,34.22c0-.08.08-.12.2-.1a4.47,4.47,0,0,1,.42,3.3C117,36.84,116.11,35.16,117.05,34.22Z"/><path class="cls-1" d="M141.6,34.43c3,5.76,6.34,11.19,8.25,18a59.34,59.34,0,0,1-8.56-17.95C141.42,34.52,141.43,34.4,141.6,34.43Z"/><path class="cls-1" d="M115.5,38.35a3.73,3.73,0,0,1-1-3.82A3.19,3.19,0,0,1,115.5,38.35Z"/><path class="cls-1" d="M102,43.52c-.7-3.08-3.09-5-3-8.56C100,37.67,102.69,39.73,102,43.52Z"/><path class="cls-1" d="M80.74,34.84c0-.08.08-.12.2-.1a7.07,7.07,0,0,1,4.13,4.84C83.34,38.7,82,36.51,80.74,34.84Z"/><path class="cls-1" d="M112.3,34.84c.49,1.13,2.17,3.1.83,4.43C112.53,38.26,111.6,36.16,112.3,34.84Z"/><path class="cls-1" d="M138.91,35.05c.14,0,.15-.14.31-.11a131.47,131.47,0,0,1,8.46,18.16c-2.77-1.87-3.55-5.44-5-8.46S139.56,38.53,138.91,35.05Z"/><path class="cls-1" d="M107.14,35.25c.74,1.64,2.22,3.07,1.76,5.57C107.78,39.65,106.31,37.36,107.14,35.25Z"/><path class="cls-1" d="M104.26,35.46c.13,0,.09-.18.2-.21.77,1.92,2.75,3.71,2.17,6.29A7.88,7.88,0,0,1,104.26,35.46Z"/><path class="cls-1" d="M136.85,35.46A142.82,142.82,0,0,1,145.1,53.3c-2.72-2-3.82-5.83-5.57-9.59-1.33-2.86-2.83-4.93-2.88-8.15C136.67,35.48,136.73,35.44,136.85,35.46Z"/><path class="cls-1" d="M111.06,40.1c-.81-.85-1.93-3-1-4.54C110.65,36.73,111.58,38.13,111.06,40.1Z"/><path class="cls-1" d="M83.21,43.61c-1.3-2.69-3.16-5.91-4.95-7.43C81.54,36.89,83.17,40.34,83.21,43.61Z"/><path class="cls-1" d="M62.48,39.89c.25-.15.88-.7,1.13-.2-.35.19-.57.53-.92.72C62.7,40.15,62.52,40.09,62.48,39.89Z"/><path class="cls-1" d="M76.82,46.08a34.49,34.49,0,0,1-3.3-5.57c.59,0,.69-.47,1.24-.51C75.51,41.89,77.1,43.49,76.82,46.08Z"/><path class="cls-1" d="M174.29,40.2c1.45,2.88,2.72,5.89,4,9,1.21,2.87,3.21,6,2.47,9.59-1.65-3.9-3.32-8.45-5.15-12.48C174.73,44.31,173.23,42.12,174.29,40.2Z"/><path class="cls-1" d="M169.86,44.84a4.22,4.22,0,0,1-.93-4.53C169.53,41.54,170.71,43.09,169.86,44.84Z"/><path class="cls-1" d="M72.69,41.13c.77,2.09,2.25,4,2.58,6.19-1.19-1.94-3.06-3.2-3.82-5.57C71.88,41.55,72.12,41.18,72.69,41.13Z"/><path class="cls-1" d="M70.53,42.27c.73,2,2.3,3.74,2.27,6.18a14.72,14.72,0,0,1-3.31-5.36A4.14,4.14,0,0,1,70.53,42.27Z"/><path class="cls-1" d="M167.49,42.78c.51.93,1.06,2.52.41,3.72C167.06,45.7,166.24,43.69,167.49,42.78Z"/><path class="cls-1" d="M178.63,56.81a4.78,4.78,0,0,1-.21,3.61c-.85-2.55-1.63-5.07-2.68-7.74-1.12-2.84-3.6-6.23-2.68-9.49C174.62,47.39,177.46,52.05,178.63,56.81Z"/><path class="cls-1" d="M68.67,44c.66,1.75,1.79,3,1.86,5.36a11.08,11.08,0,0,1-2.89-4.54A3.09,3.09,0,0,1,68.67,44Z"/><path class="cls-1" d="M166,45.46c.19.64.57,1.09.72,1.76-.44.07-.61.42-1.23.31A1.32,1.32,0,0,1,166,45.46Z"/><path class="cls-1" d="M159,47.73c.39.78,1,2.67-.1,3.2A2.43,2.43,0,0,1,159,47.73Z"/><path class="cls-1" d="M157.07,49.59a2,2,0,0,1,0,1.86c-.25-.05-.23.18-.52.1C155.76,51,156.45,49.92,157.07,49.59Z"/><path class="cls-1" d="M117.25,53.3a8,8,0,0,1-1.54-3.5C117.12,49.24,117.8,51.89,117.25,53.3Z"/><path class="cls-1" d="M106.22,57.53c-2.47-1.24-2.59-4.84-3.51-7.63C104.69,51.15,105.43,55.08,106.22,57.53Z"/><path class="cls-1" d="M114.78,54.44c-.26-1.5-1.27-2.24-1.34-3.92C114.94,49.8,115.86,53.54,114.78,54.44Z"/><path class="cls-1" d="M111.89,51.24c.65.82,1.54,2.85.72,4.13C112.36,54.16,110.33,52.29,111.89,51.24Z"/><path class="cls-1" d="M101.37,51.24c.74,2.32,2,4.62,2.37,7C102.07,57,99.84,53.73,101.37,51.24Z"/><path class="cls-1" d="M155,52c-.41-.12-.78.32-1,0,.42-.16.55-.62,1.14-.62C155.18,51.66,154.93,51.65,155,52Z"/><path class="cls-1" d="M109.83,52.17c.26,1.38,1.3,2,1.23,3.71C109.42,56,108.28,53.08,109.83,52.17Z"/><path class="cls-1" d="M98.89,53c.2,0,.23-.11.42-.1.76,2,1.51,4,2.16,6.09A6,6,0,0,1,98.89,53Z"/><path class="cls-1" d="M95.8,53.41c1-.32,1.57.54,1,1.13C96,54.61,96,53.91,95.8,53.41Z"/><path class="cls-1" d="M123.34,53.61c1.81-.18,1.75,4,.93,5.26C124.41,56.73,123.45,55.17,123.34,53.61Z"/><path class="cls-1" d="M93.43,59.29c-2.06-.63-2.51-3.41-3-5.27C92.23,55,92.38,57.58,93.43,59.29Z"/><path class="cls-1" d="M96.42,59.8c-2.64.09-2.8-3.17-3.3-5.57C95.5,54.81,95.47,57.79,96.42,59.8Z"/><path class="cls-1" d="M98.89,59.49c-2.07-.16-2.33-2.57-2.37-4.43C98.37,55.48,98.23,57.89,98.89,59.49Z"/><path class="cls-1" d="M181.72,58.56a10.56,10.56,0,0,1-.21,2.27c-.55-.2-.46-1-.72-1.54C181.26,59.2,181.41,58.8,181.72,58.56Z"/><path class="cls-1" d="M111.37,82.7c.63-2.7.09-6.09-.2-8.35C113.05,75.71,113.56,82,111.37,82.7Z"/><path class="cls-1" d="M106.42,76c1,1.75,1.84,6.73-.2,7.63C107,81.66,105.61,78.34,106.42,76Z"/><path class="cls-1" d="M104,76.3c.77,1.74,1.66,6.62-.21,7.84C104,81.83,102.92,78.38,104,76.3Z"/><path class="cls-1" d="M100.85,76.82a11.54,11.54,0,0,1,.62,7.12,14.25,14.25,0,0,1-.93-7.12Z"/><path class="cls-1" d="M91.57,83.22c-1.54-1.07-3.09-4.31-2-6.4A15.71,15.71,0,0,0,91.57,83.22Z"/><path class="cls-1" d="M98.69,84.14c-1-1.5-2-5.11-.83-7.11A12.15,12.15,0,0,1,98.69,84.14Z"/><path class="cls-1" d="M93.84,83.73c-1.61-.42-2.62-4.8-1.45-6.39C92.79,79.56,93.53,81.42,93.84,83.73Z"/><path class="cls-1" d="M96.31,84c-1.43-1.12-2.46-4.53-1.44-6.5C95.82,79.24,95.9,81.81,96.31,84Z"/><path class="cls-1" d="M.9,15.14c4.76,7.36,21.85,6.08,33.21,7,4.37.36,8.67-.16,13,.1s7.68,1.44,12.28,1.55c2.12.05,4.67,0,6.8-.1,1.92-.09,5.51-.38,5.68,1,.11,1-2,1.95-2.89,2.79a39.15,39.15,0,0,0-7.63,9.28,17.88,17.88,0,0,0-2.69,8.56c-.1,8.29,6.9,11.09,13.83,12.89-.64,8.24,3.16,12.92,8.76,15.27,1.14,7.55,6.4,12.16,14.24,12.69a47.25,47.25,0,0,0,8.46-.62c2.77-.35,5.75-.15,8.15-.93,4.72-1.55,6.29-6.2,10.62-7.84,1.94-.73,5.38-.37,8.25-.41,8.08-.13,15.89-1.65,23-2.79,7.94-1.26,14.16-2.48,19.29-6.5,2.6-2,4.9-5,8.87-2.78-.17,3.92-1.34,9.38.42,12.48,6.57.89,14.51.41,21.35,1,1.26,3.76-.73,11.48,2.68,13.21,2.07,1,6.84,1,9.49,1.23a222,222,0,0,0,30.74,0c-.14-.21-.63-.06-.94-.11a.27.27,0,0,1-.2-.09c-4.88-36.31-17.83-64.55-39.81-83.76,3.1,1.73,5.85,4.53,8.35,7.22,17.44,18.77,28.66,44.51,32.85,76.56l.06.39c.21,0,.38-.19.51-.48a4.67,4.67,0,0,0,.31-1.27c.21-1.92-.44-4.66-.82-6.91-5.5-32.35-18.75-58.32-38.79-75.72,6.23,4.16,11.08,9.82,15.58,15.68C237.36,41.31,246,64.08,249.46,91.51l0,.27a2,2,0,0,0,.53-.51c1.12-1.61.15-5.29-.32-8C244.24,51.16,230.84,25.41,211,8.12c6,4,10.94,9.59,15.37,15.37C239.55,40.7,248,63.66,252.11,89.91c0,.21.07.41.1.62.08-.29.14-.58.2-.88.8-4.23-.54-9.2-1.37-13-6.23-28.88-18.49-52.22-37.34-68.49,5.93,4.05,10.88,9.44,15.26,15.17,12.85,16.79,21.46,38.31,25.35,64.13l.24,1.57a7.76,7.76,0,0,0,.66-3.09c.12-3.5-1.19-7.94-1.9-11.14-6.26-28.08-18.74-51-36.93-66.64,3.14,1.7,5.55,4.42,8.05,6.91C241,31.6,251.24,55.18,256.3,83.41c.21,1.2.42,2.4.62,3.62a18.49,18.49,0,0,0,.31-6.79,79.91,79.91,0,0,0-2.17-9.71c-6.43-25.89-18.73-47.47-35.9-62.3,3,1.55,5.29,4.14,7.64,6.5,15.47,15.47,25.45,36.89,31,62.38.33,1.5.65,3,.94,4.56a36.73,36.73,0,0,0-.51-8.69,91.93,91.93,0,0,0-3.92-14C247.4,38.31,236.7,21,221.85,8.23c2.73,1.44,5,3.73,7.11,5.88,13.81,13.8,23.28,32.29,29.44,53.83q.8,2.76,1.51,5.58a41.64,41.64,0,0,0-1.76-11.21c-.88-3.09-2-6.06-3.09-8.9-7-18.23-17-33.61-30.63-45.29a28.11,28.11,0,0,1,6.39,5.16C242.5,25,251.5,39.66,257.61,57.06q1.29,3.66,2.4,7.49a38.34,38.34,0,0,0-3.5-14.34c-.44-1.05-.9-2.08-1.35-3.1C248.29,31.61,239.13,18.38,227,8c7.72,5.36,13.75,12.61,19,20.42A125.16,125.16,0,0,1,255.39,45c1.43,3,2.74,6.19,3.9,9.46-.28-5.42-2.51-10-4.74-14.24-.28-.52-.57-1-.85-1.57-6.46-11.86-14.1-22.34-24.12-30.71,9.47,6.8,16.63,15.91,22.66,26.15q1.89,3.21,3.65,6.55A38.13,38.13,0,0,0,249.52,27c-1.7-2.44-3.56-4.72-5.39-6.91A88.31,88.31,0,0,0,232.06,7.81a25,25,0,0,1,6.08,4.75A90,90,0,0,1,248,23.73c1.7,2.26,3.32,4.6,4.85,7-1.15-5.59-5.09-9.83-8.6-13.7l-.58-.63a98.83,98.83,0,0,0-9.18-8.77,41.34,41.34,0,0,1,7,5.67c2.59,2.56,4.94,5.36,7.3,8.15-2.48-6.08-7.69-10.33-13-13.93,1.1,0,2.08-.12,3.1-.2-5.07-1.14-12.88-.49-20.42-.72-2.84-.09-6.08,0-9.18-.11-4.69-.13-8.93.14-10.11,3.41-2.49.07-5.5.31-8.77.31-4.21,0-9.06-1-9.7,2.57-8.21.72-15.63-.77-22.79-2.26-3.7-.78-7.38-1.12-11.14-1.55-3.56-.41-7-1.52-10.52-2.17-7.19-1.33-14.11-2.58-21.15-4.33A70,70,0,0,0,92.5.18C85,.78,77.57,2.22,69.8,3s-16,.42-24.13,1.23c-3.83.39-8,.17-12.07.52-3.75.32-7.82,1.11-11.76.93C14.41,5.31,3.22,3.91.59,9A6.88,6.88,0,0,0,.9,15.14Zm220.43,76a178.41,178.41,0,0,0-6.5-30c-1.21-3.86-3.17-7.21-3-11.55a18,18,0,0,0,1,2.58c.58-4.21-1.93-6.26-1.75-10q.76,1.81,1.65,3.51c.61-4.81-2.8-6.14-2.58-10.21.76,1.37,1.65,3.16,2.37,4.23.19-4.69-3.3-6.26-3.4-10.32a35.06,35.06,0,0,0,2.58,4c-.08-4.38-3.49-6-3.92-9.69a30.24,30.24,0,0,0,2.68,3.61c-.3-3.93-3.16-5.3-4.23-8.46.73.14,1.82,2.24,2.58,2.68-.49-3.5-3.18-4.79-4.33-7.63.61.32,1.94,2.25,2.78,2.68-.64-2.94-2.81-4.33-4.33-6.39.74,0,2,1.83,2.79,2.16a23.24,23.24,0,0,1-2.17-3.81c.58,0,1,.48,1.75.31,1.32,2.28,3.27,3.78,5.06,5.57,18.53,18.52,29.44,44.67,33.73,77.67a11.18,11.18,0,0,0-1.34-.11C238.63,57.81,226.51,31,207.3,12.25c.43,2.91,2.4,4.17,4,6,16.45,18.32,26,42.93,30.12,73.75a4.08,4.08,0,0,0-1.35-.1c-3.85-31.8-14.76-57.1-31.56-75.61.87,2.89,2.48,4.75,4.13,6.91,13.79,18.06,22.56,40.27,26.09,68.7a3.75,3.75,0,0,0-1.34-.1C234,63,224.54,39.6,210.5,21.74c.38,2.92,1.94,4.6,3.3,6.6,11.71,17.24,18.95,37.7,22.28,63.44a11,11,0,0,0-1.34-.11c-3.14-25.7-11-47.23-22.69-64,.65,4,2.69,6.45,4.43,9.59,8.66,15.56,14.22,33,16.92,54.46-.56.08-.8-.16-1.34-.1-2.79-22.75-9.35-42.29-18.88-58,.12,3.76,2,6.13,3.41,9,7.13,14.19,11.7,30.09,14.13,49-.56.08-.84-.13-1.34-.1-2.5-20-7.9-37.7-15.68-52.09-.27,3.72,1.44,5.44,2.58,8,5.79,13.24,9.59,27.36,11.76,44.05-.56.08-.8-.17-1.35-.1-2.2-17.36-6.46-32.67-12.68-46-.12,3.64,1.05,5.71,2.06,8.36a150.05,150.05,0,0,1,9.18,37.65,4,4,0,0,0-1.34-.11,149.86,149.86,0,0,0-9.59-38.78c-.23,4.77,1.4,7.64,2.58,11.55a150.36,150.36,0,0,1,5.67,27.13ZM218.65,91a193.72,193.72,0,0,0-4.54-22.9c-.91-3.5-2.47-6.47-2-10.72a164.89,164.89,0,0,1,7.74,33.73A4.34,4.34,0,0,0,218.65,91Zm-2.79-.2c-.46-3.81-1.08-7.3-1.75-10.83-.91-4.78-2.56-9.07-2.06-14.45a171.24,171.24,0,0,1,5.15,25.38A4.33,4.33,0,0,0,215.86,90.75Zm-2.78-.31c-.18-5.87-2.82-11-1.55-16.71a168,168,0,0,1,2.89,16.81A7,7,0,0,1,213.08,90.44Zm-2.68-8.77a63.35,63.35,0,0,1,1.23,8.66,5.55,5.55,0,0,0-1.23-.2C210,87.22,209.31,84.27,210.4,81.67Zm-2.07,8c.3-.28.2-1,.52-1.23a5.26,5.26,0,0,0,.21,1.44C208.73,89.94,208.43,89.92,208.33,89.71ZM184.82,75.48c2.65-9.66,5.3-21,4.74-33.21a128.44,128.44,0,0,0-1.44-14.55c-.82-4.94-1.63-11.59-4.54-14.65-.54-.56-1-.52-.93-1,.18-1.18,3.77-.62,5-.62,4.4,0,8.71-.42,12.69-.31A17,17,0,0,1,204,16.48c-.25.21-.68-.83-.93-.62.48,2.1,1.8,3.36,2.27,5.47-.23.18-.59-.91-.82-.73.31,2.31,1.61,4.17,2,6.09-.27-.35-.62-1.17-.93-1.13.22,2.94,2.07,4.8,2.27,7.42a12.08,12.08,0,0,0-1.76-2.68c.65,3.34,2.57,6,2.79,9.39-.53-.85-.92-2.38-1.65-2.68.44,3.44,2.42,5.89,2.37,9.49-.75-1.69-1.64-3.24-2.47-4.85.48,4.43,2.66,7.72,2.68,12.27a49.49,49.49,0,0,0-2.27-5.57c.64,4.21,2.12,8.13,2.27,12.48-1.22-2.56-2-5.56-3.2-8.15-.09,6.63,3.65,10.51,3.1,16.92-1.09-2.93-1.93-6.12-3-9.08-.2,5.59,2.73,9.95,1.45,15.27-.46-1.71-.53-3.81-1.45-5.05-.43,1.87-.4,4.2-1,5.87-.67-.7-.71-2-1.34-2.78-.36,1-.54,2.08-1.34,2.58-.47-.77-.45-2-1.24-2.48-.5.74-.64,1.84-1.54,2.17a5.34,5.34,0,0,0-.93-2.37c-.65.69-.78,1.9-1.65,2.37-.52-.65,0-2.31-.52-3-1,.73-.91,2.46-2.17,2.89-.27-.9.1-2.44-.41-3.1-1,.83-1.22,2.42-2.37,3.1-.17-.81.14-2.32-.31-3.1-.93.85-1.09,2.49-2.37,3-.54-.51.35-2-.41-2.37-1,.59-.72,2.45-2.38,2.37-.09-.66.22-1.73-.2-2.06C185.89,74.29,185.62,75.59,184.82,75.48Zm-60.76-4.74c.5-3.17-2.12-5.13-1.24-7.33A6.61,6.61,0,0,1,124.06,70.74Zm.31-20.22c1.5.7,2.23,2.17,2.48,4.12a11.1,11.1,0,0,0,.51-1.85,9,9,0,0,1-3.71,6.81,7.28,7.28,0,0,0-1.24-4.75c-.63,1.3.57,3.45-.31,4.64-.18-1.51-1-2.38-.82-4.23.11-.43.78-.31.82-.82-.12-.67-.37-1.39.21-1.76.22.16.16.6.51.62.08-.47.64-.46.62-1s-.56-.52-.31-.82c1.82.51,2.31,3.46,2.58,5.57C127.23,54.59,125.08,52,124.37,50.52Zm-2-.31c0-.14-.15-.2-.1-.41h.51A.38.38,0,0,1,122.41,50.21Zm-8,7c3.51.25,2.7,5.7,3.92,8.56-.42.34-.52,1-1.34.93-.2-2.61-.58-5-2.27-6.19.82,2,.69,4.88,1.45,6.91a2.8,2.8,0,0,1-1.14.73c-.86-1.9-.58-5.47-2.37-6.09,0,2.32,1.71,5.9,0,7.32-1-3.73-1.64-6.65-2.47-10,1,0,1.81,1.06,2.57,1.65.49-1.1-.44-2-.31-2.79,1.09,0,1.76,1.2,2.17,2.17C115.27,59.71,114.5,58.1,114.36,57.22Zm2-1.34c.7-.5,1.13.11,1.76.41.69-.68.73-2,1.65-2.47a5.27,5.27,0,0,0,.41,1c-.76,2.67,2,5.76.31,8.36.17-2.68-.32-5.25-1.86-5.88.47,2.21,1.69,5.91.11,7.73C119.18,60.64,116.67,59.11,116.32,55.88ZM120.86,53c-.59-.69.08-1.35.42-2C121.8,51.71,121.08,52.43,120.86,53Zm-3.09-7.63c1.35,1.06,2.9,3,2.17,5.47C119.57,48.72,118.16,47.11,117.77,45.36Zm.2-5c2.52.82,3,4.23,4,6.19C119.91,45.28,119.09,42.7,118,40.41Zm4.34,20.22h.51c.1.61-.27.75-.62.92C121.92,61.25,122.08,60.92,122.31,60.63ZM125,61c.28,1.14.79,2.48-.1.93C125,61.69,124.76,61.15,125,61Zm.51,6.81c0-1.67-1.07-3.46-1.13-4.44C125.4,64.18,126.49,66.34,125.5,67.85Zm-3.4,4c0-2.23-2.1-4.6-.62-6.71C122.72,66.47,123.36,70.19,122.1,71.87ZM84.14,77c.09-.64.87-1.26.41-2a1.16,1.16,0,0,1,1.14-.52c.31.9-.24,1.36-.21,2.27,1.08,1.85,1.62,4.78,3.41,5.57-1-1.73-2.67-6.14-.52-7.94.6,2.86,1.23.59,2.58-.1.25.78.29,1.76,1,2.06a3.27,3.27,0,0,1,1.65-2.17c.24.76.29,1.7.83,2.17.74-.67.75-2.07,1.85-2.37.06.91.64,1.82,1.24,1.85a3.32,3.32,0,0,1,1.34-2.27c.57.57.84,1.44,1.45,2a4.28,4.28,0,0,1,.72-1.85c1.19.32,1.49,1.53,2.58,2,.49-.58-.3-1.71,0-2.38,1.51,0,1.73,1.84,2.68,2.07.15-.94-.33-1.9.1-2.48,1.22.3,1.7,1.32,2.58,2,0-1-.46-1.46-.41-2.47,1.22.08,1.56,1,2.37,1.54a7.41,7.41,0,0,0-.21-2C114,73.16,114,78,114.16,82c2.23-2.69,0-7.84-.83-10.73,3.09.82,2.49,5.8,3,8.87,1.57-2.31.5-7.78-.72-9.9,2.65,1,2.74,4.91,2.89,8,2.15-2.57-.22-7.48-.41-9.8,2,1.18,2.15,4.85,2.27,7.63.65-.51.88-1.46,1.34-2.17-2.31,5.62-6.77,9.94-15.16,10.32-3.35.15-6.14,1-9.7.82-5-.26-9.09-2.16-11.35-5C85,79.45,84,77.94,84.14,77ZM73.93,61c.5,1.22.57,2.87,1.44,3.71-.39,1.77,1.19,3,2.07,3.51-.23-2.66-2.89-5.93-1.14-8.25.8,4.27,1.37,9.8,4.75,11.45-1.78-2-1-6.48-3.41-7.84,1.14-.61-.27-3.15,1.34-3.2.82.91,1.3,2.14,2.38,2.79-.13-.72-.65-1.54-.52-2.17,1.84-.29,1.75,2.24,3.3,2.58-.07-.8-.67-1.58-.51-2.27,1.91-.12,2.32,2.69,3.5,3.3-.07-1-1.06-2.14-.31-3,1.45.17,1.94,1.85,2.79,2.27-.08-.76-.62-1.56-.52-2.17,2-.43,1.7,2.22,3.3,2.48-.3-.88-.84-2.39.62-2.38a3,3,0,0,0,1.45,2.27,2.46,2.46,0,0,1,.72-1.65c.95.29,1.19,1.28,1.86,1.86.16-.62.16-1.41.61-1.75,1.24.41,1.52,1.78,2.27,2.68.45-.69-.25-1.73.11-2.68,1.3.48,2,1.58,2.89,2.47.56-1.2-.52-2.09-.21-3.3a6.65,6.65,0,0,1,3.09,3.61c.35-1.56-.55-2.74-.72-4.12,2.08,0,2.14,2,3.3,3,.61-1.52-1.57-3-.1-3.82,2.42.7,1.89,3.4,2.27,6.4.17,1.32.93,3.78-.72,4,0-2.62-.4-4.9-1.65-6.29-.24,2.66.68,4.46.31,6.6-.52.09-.44-.33-.83-.11a34.85,34.85,0,0,0-1.44-5.15c0,1.51-.3,3.78.1,5.36a6.54,6.54,0,0,1-1.24.21c-.65-1.87-.57-4.46-2.16-5.37.45,1.65.18,4,.82,5.47a4.36,4.36,0,0,1-1.24.1c-.46-1.8-1-4.13-2.16-4.84a37.29,37.29,0,0,0,.72,5,6.77,6.77,0,0,1-1.24.1c-.44-1.72-.61-3.72-1.86-4.64.18,1.77,0,3.35.52,4.85a6,6,0,0,0-1.24.1c-.56-1.88-.81-4.08-2.06-5.26.51,1.51.34,3.71.72,5.36a3.4,3.4,0,0,1-1.34.11c-.37-2.14-1.11-4.46-2.27-5.47.45,1.75.38,4,.93,5.67-.53-.08-.75.15-1.24.11-.55-2.21-1.07-5-2.47-6C90,68.62,90,71,90.64,72.8c-2.94-.67-1.7-5.52-4.13-6.71.47,2.28.82,4.69,1.45,6.81-2.77-.6-1.71-5-3.92-6.19,0,2.43.93,4,1.24,6.09a2.27,2.27,0,0,1-1.76-1.45,35,35,0,0,0-2.78-7.22c-.77,3.36,1.16,5.6,1.75,8.26C77,71.33,74,67.23,73.93,61Zm-1.24-4.33a7.17,7.17,0,0,1,1.76.62c.07-.45-.3-.46-.31-.83,1.51,0,2,1.09,3.3,1.34-.15-.51-.65-.65-.72-1.24.42.08.52-.15.92-.1a1.72,1.72,0,0,0,1.86.93c-.17-.35-.24-.79-.41-1.14a5.11,5.11,0,0,1,1.24-.2c.2,1,1.06,1.4,2,1.75-.19-.77-.51-1.42-.73-2.16.39-.1.73-.24,1.14-.31.43,1.25.82,2.54,2.37,2.68a27.23,27.23,0,0,1-1-3.2c.46,0,.64-.25,1-.31.59,1.47.9,3.23,2.68,3.51-.47-1.36-.94-2.71-1.44-4,.42-.09.71-.32,1.13-.41.79,2,1.13,4.44,3.2,5.16-.52-2.05-1.41-3.75-2-5.78.91-.84,1.6.31,2.58.11,0-.51-.32-.65-.31-1.14a2.77,2.77,0,0,1,1-.51c.16.46.2,1,.62,1.23.38-.61.92-1.21.52-2.06a4.28,4.28,0,0,0,.92-.51c.27.31.25.91.62,1.13a2.17,2.17,0,0,0,.62-2c.37-.11.53-.44.93-.52.33.57.33,1.47.93,1.76.78-.55.61-1.8.21-2.58.41-.07.52-.44,1-.41a16.3,16.3,0,0,0,1,2.37,2.89,2.89,0,0,0,.1-3.1,2.49,2.49,0,0,1,1-.51,4.77,4.77,0,0,0,1,2.06,3.28,3.28,0,0,0,.11-2.68c.36-.12.55-.41,1-.41a8,8,0,0,0,1,2.06c.8-.37.53-2,.21-2.68.45,0,.61-.29,1-.31A4.21,4.21,0,0,0,107,46.5a6.09,6.09,0,0,0-.82-2.58c.44,0,.65-.24,1.13-.21.68,1.52,1.92,2.48,2.06,4.54a4.68,4.68,0,0,1-.82,1.13c-.34-.9-.72-2.3-1.45-2.47-.07,2.24,1,4.24.31,6.39-.53-1.46-1-3.49-2-4.23,0,3.49,1.86,10.1,5.16,7.33-3.21-.24-2.2-5.82-.93-7.43a5.33,5.33,0,0,0,.62,1.34c.27-.35.92-.32,1-.82a6.19,6.19,0,0,1-.51-1.45c.39,0,.57-.32,1-.31a5,5,0,0,0,.62,1.34,2,2,0,0,0,1.13-.51c-.12-.49-.4-.84-.51-1.34a6.3,6.3,0,0,1,1.13-.21c.2.42.27,1,.62,1.24a.64.64,0,0,1,.52-.1,3.12,3.12,0,0,0,.31-1.14c2.15.84,3,3.57,3.3,5.88-4.78,1.69-7.76,5.17-13.41,6-2.8.89-5.75,2.2-9.29,2.07-2-.08-4.15-1-6.39-1.14-3.06-.2-5.75-.07-8.36-.41C78.33,59,74.42,58.4,72.69,56.71ZM115,45.46c-.18-.6-.54-1-.72-1.65,1.73.2,1.87,2,3.1,2.69C116.56,46.15,116.05,45.53,115,45.46Zm-3.61-2.16c1.35-.15,2.51,2,1.24,2.78A26,26,0,0,1,111.37,43.3Zm0,3.5c-.36.12-.52.44-.92.52a8.15,8.15,0,0,0-1.76-3.92C110.84,42.93,111,45.21,111.37,46.8ZM72.8,26.07c1.78,2.1,3.75,4,4.64,7-.36.09-.45.44-.93.41-.56-2.24-1.88-1-1,.82-.43,0-.44.46-.93.42a4.44,4.44,0,0,0-.72-1.24,1.34,1.34,0,0,0-.31,2.06c-.36.12-.44.52-.93.52A3.21,3.21,0,0,0,72,34.94,1.52,1.52,0,0,0,71.56,37c-.29.15-.44.45-.83.51A4.12,4.12,0,0,0,70,36.28c-.41.36-1,1.48-.31,2a1.33,1.33,0,0,1-.82.83,5.71,5.71,0,0,0-.83-1.45c-.7.36-.68,1.66-.31,2.27-.38.06-.53.36-.82.52a9,9,0,0,0-.73-1.34,1.8,1.8,0,0,0-.41,2.16c-.24.28-.41.63-.82.73a6,6,0,0,0-.73-1.45,2.23,2.23,0,0,0-.1,2.68c-.34.24-.36.81-.72,1a24.22,24.22,0,0,0-1.55-3c-.91,2.78,1.72,4.43.62,7.12a24.52,24.52,0,0,0-1.75-3.92c-.7,3.4,1.4,5.3,1.75,7.64C59.63,50,58.16,42.9,61.35,40a2.43,2.43,0,0,1,0-1.34C63.18,34,69.05,29.18,72.8,26.07Zm4.12,3.3c1,.73,2.1,1.34,2.48,2.68l-.83.42C78.21,31.38,76.88,30.17,76.92,29.37ZM73.83,25c1.77.16,2.48,2.46,3.09,3.09A20.06,20.06,0,0,1,73.83,25ZM50.41,18c1.11,1.5,2.41,2.81,3.51,4.33C52.21,21.55,50.24,20.05,50.41,18Zm-.93,3.19c.08-.26.11-.58.31-.72.33.47.71.88,1,1.34C50.2,21.81,50,21.38,49.48,21.22Zm-3.61-.93c.23-.19-.1-.93.31-.92.23.56,1.1,1,1,1.54C46.83,20.64,46.19,20.63,45.87,20.29ZM26.58,15.55c1.49,1.61,3,3.21,4.34,4.95C29,19.36,27,17.79,26.58,15.55Zm-22-5c-2.47.28-3-2.13-1.13-3.2,5-2.83,12.6-.71,18.67-.72,3.93,0,7.55-.9,11-1.14,3.81-.25,7.77,0,11.65-.3,6.19-.51,12.75-.07,19-.52C73.87,4,83.6,1.86,93.22,1.42a67.57,67.57,0,0,1,8.66-.31c6,.5,11.51,2.39,17.13,3.4,2.74.5,4.34,1.47,6.8,2,0-.35-.3-.31-.41-.51,10,2.32,21.08,3.92,31,6,0-.21-.28-.2-.31-.41,1.39.22,2.15,1.08,3.71,1.13,0-.2-.7-.48-.2-.51,1.32.43,2.21,1.29,3.81,1.44-.07-.34-1-.76-.61-.93,1.41.48,2.18,1.6,4,1.65-.14-.4-1.2-.9-.83-1.13,1.49.4,2.1,1.68,4,1.65-.17-.44-1.28-1-.93-1.24,1.48.37,1.94,1.77,3.92,1.65-.08-.56-1.28-1-.93-1.34,1.38.33,2,1.45,3.71,1.44-.08-.55-1.27-1-.93-1.34,1.17.28,1.85,1,3.3,1,.06-.43-1-.74-.51-.92,1.35.36,2.08,1.35,3.71,1.44-.16-.61-1.4-1.19-1.13-1.55a9.9,9.9,0,0,1,3.81,3.41,7.66,7.66,0,0,1,.83,4.23,3.37,3.37,0,0,1,1.13,2.78c-.35-.51-.86-1.4-1.23-1.55.28,2.64,2,4.36,2.16,6.81-1.48-2.05-2.43-4.65-5.26-5.36,1.95,3.38,5.23,6,5.67,10.52a63.24,63.24,0,0,0-6.7-10.21c1.13,6.09,6.19,8.8,6.7,15.16-2.56-4.9-5.07-9.85-8.56-13.82,1.82,7.5,7.95,11.24,8.67,19.49-3.07-6.63-6.59-13.36-10.63-18.67,2.47,9.06,9.33,13.94,10.22,24a104.56,104.56,0,0,0-5.78-12.38c-2.12-4-4.08-8-7-11.24,3.45,10.3,11.06,17,12.28,29.19C182.68,46,178.06,35.68,172,27.72c1,4,3,6.74,4.74,10,1.16,2.12,2.23,4.32,3.3,6.6,2.05,4.33,4.49,9.06,5.78,13.92a7.83,7.83,0,0,1-.11,3.92,120.26,120.26,0,0,0-10.41-24.75c-.49,2.91,1,4.62,2.16,7,1.49,3.16,2.93,6.62,4.13,9.8a42.32,42.32,0,0,0,1.86,5.16c.66,1.21,2.63,2.4,1.34,3.92-2.2.29-4-.65-6-.93-.08-.6.52-1.38.11-1.65a39.76,39.76,0,0,1-26.2,12c-6.07.33-11.8,1.7-18.26,2.26-3.06.27-8.2,1.24-9.59-1a6.4,6.4,0,0,1,.61-1.13,2.26,2.26,0,0,0,1.76,1.85c-.54-2.41-1-4.38-.31-6.91,1,2.19.38,6.09,3,6.71-.57-5.57-3.86-10-3.09-15.89.6,2.17,1.46,4.46,2.16,6.91.91,3.2,1.1,7.37,3.51,8.57-.59-2.73-1.19-5.35-2-8.05-1-3.35-2.88-6.65-2-10.11.83,2.49,1.71,5.2,2.58,8,1.11,3.61,1.5,8.08,3.92,9.8a141.74,141.74,0,0,0-6-20.22c2.63,1.7,3.32,5.8,4.43,9.49.43,1.42.94,2.94,1.34,4.43.64,2.38.75,5.39,2.79,5.57a186.61,186.61,0,0,0-5.37-18.36c2.42,1.5,3,5.1,4,8.57.81,2.64,1.3,5.52,2.06,7.53.27.72.85,1.7,1.75,1.75a124.2,124.2,0,0,0-5-17c2.47,1.3,3,4.9,3.92,8a74.19,74.19,0,0,1,2,7.23c.56.39.76,1.56,1.65,1a134.84,134.84,0,0,0-4.64-15.68c3.7,2.26,3.74,9.88,5.57,13.92.24.54.73,1.39,1.65,1-1.32-5-2.71-10-4.44-14.64,4.51,3.05,3.19,11.94,7.22,15.47a137.88,137.88,0,0,0-4.43-15.37c3.65,2.23,3.51,9.58,5.36,13.62a2.18,2.18,0,0,0,1.76,1.34c-1.29-5.18-2.8-10.13-4.44-15,3.49,2.44,3.39,8.75,5.16,12.79.29.67.92,1.73,1.86,1.75a148.18,148.18,0,0,0-4.44-14.64c4.31,2.32,3.11,12.23,7,14.34a136.24,136.24,0,0,0-4.43-14.65c2.22.59,2.5,3.39,3.3,5.88,1,3.28,1.47,6.57,3.61,8.35-.92-5-2.83-10-4.33-14.75,2.28.8,2.54,3.9,3.4,6.6.94,3,1.37,5.93,3.1,7.43-.46-5.73-2.63-9.75-4-14.54,3.73,1.65,3.57,11,6.09,13.41.14-5.69-2.4-9.57-3.71-14.14a2.27,2.27,0,0,1,1.65,1c2.16,3.44,2.08,9.75,4.74,12.37-.28-5.87-2.67-9.63-4-14.44a1.44,1.44,0,0,1,1.44.72c2.37,3.35,2.27,10.2,4.95,13,.05-3.47-1-5.57-1.85-8.25-.82-2.45-2.5-5.29-1.34-7,2.3,4.26,2.92,10.21,5.57,14.13.06-3.64-1-5.68-2-8.36-.88-2.52-2.51-5.12-1.45-7.32,2,4.81,3.61,10,5.37,15.06.54-4.27-.8-6.59-1.86-9.59-.87-2.47-2.66-5.16-1.55-7.23,2.06,4.82,3.75,10,5.57,15.06.75-3.73-.72-6.36-1.86-9.38-1-2.65-2.58-4.73-2.06-7.53,2.54,4.61,4.12,10.18,6.09,15.37a5.76,5.76,0,0,0,.31-3.1c-.93-4.79-4-9.63-5.47-13.72-5,4.94-12,9.61-21.66,10.22A34.43,34.43,0,0,1,138,54.23c-3.43-1.09-8.51-2.55-11.25-4.33-3.35-2.19-4.29-6-6.29-10,3.61,1.79,3.23,7.57,6.91,9.29-1.38-3.4-3-6.56-4.54-9.8,4,2.15,3.76,8.62,7.64,10.93-1.51-4.1-3.44-7.77-5.26-11.55,4.26,2.44,4.2,9.75,8.25,12.07-1.88-4.52-3.95-8.85-6.09-13.1,4.69,3,4.49,10.85,9.08,13.92a161.15,161.15,0,0,0-7-15.06c2.81,1.68,4.17,5.75,5.68,9.08,1.29,2.86,2.4,5.76,4.64,7.32a190.18,190.18,0,0,0-8.36-17.74c.39-.06.42-.47.83-.51,3.81,5.64,5.68,13.78,10.11,18.46-3.07-7-5.17-15.05-10.73-19.6.73,1.32-.9,1.25-1.13.52-.19.91-.56,1.64-1.45,1.85a14.21,14.21,0,0,1-1.13-2.16c.49-.41,1.13.23,1.34.1.53-.76-.18-1.89.1-2.68-6.41,7.55-18.75,9.17-28.88,13a5.67,5.67,0,0,0-3.2-4.54c.68,1.53,2.25,3.24,1.76,5.26-1.36-1.4-2-3.56-3.92-4.33.63,1.69,2.27,3.39,1.85,5.46-1.06-1.27-1.73-3.5-3.09-4.12-.45,2.32,1.89,3.88.72,5.57-.81-1.05-1.39-3.22-2.27-4.54-.87,2.45,1.28,4.21.52,5.88-.94-1.17-2-2.76-3.1-3.41-.28,1.9,2.29,3.66.93,4.65a14.76,14.76,0,0,0-3-3.31c0,1.85,1.06,2.66,1.34,4.23a1.11,1.11,0,0,0-.62.31,18.08,18.08,0,0,0-2.89-3.4c-.49,1.59,1.91,3.44.93,4.13-.72.5-1.93-2.79-3.2-2.69a22.29,22.29,0,0,0,1.24,3.51,2,2,0,0,0-.72.31c-.79-.72-1.42-2.16-2.37-2.37a7.72,7.72,0,0,0,.72,2.89c-.41,0-.52.23-.93.2-.66-.89-1.32-2.32-2.37-2.47a10.45,10.45,0,0,0,.82,2.88c-1.63.71-1.73-2.09-3.19-1.85,0,1,.56,1.42.61,2.37-1.6.26-1.4-1.8-2.88-2a10.22,10.22,0,0,0,.31,2.17H73.21c-.11-1.2-1.07-1.54-2.07-1.86.18.61.49,1.1.62,1.75-1.34-.63-2.16-1.76-3.4-2.06,0,.5.54,1.1.41,1.44a3.65,3.65,0,0,1-2-2,5.34,5.34,0,0,1-3.2-6.08c.75-4.92,6.73-7.14,10.22-9.7,3.65-2.68,7.15-3.91,10.52-6.19,2.36-2.93,6.26-3.84,10.31-4.64,1.37-.27,3.18-1.43,4.85-2.27,5.43-2.73,8.66-7.47,13.72-9.59.56-.07,1.62-.13,2-.72.79.17,2,0,2.17-.42a3.09,3.09,0,0,0,2.47-.3,7,7,0,0,0,2.37.2c0-.16-.61-.47-.1-.51a4.35,4.35,0,0,0,2.48.2c-1.18-.92-2.1-3.26-4.23-2.27.33.64,1.75,1.26,1.54,1.76-1.49-.4-1.75-2.23-4-1.55.27.57,1.61,1.12,1.34,1.55-1.28-.3-1.8-2.05-3.5-1,.35.41,1.19.84,1.13,1.34-1,0-1-1-1.86-1.24a13.11,13.11,0,0,0-1.34.41c.14.5,1.39.92,1,1.24-.82.37-1-.82-1.65-.93-.47.08-.75.34-1.23.41.13.44,1.28.89.82,1.24-2.1-.12-3.16-4.19-5.36-3.2-.33.59.84.65.51,1.24-.45.2-.88-.93-1.34-.72a3.1,3.1,0,0,1-.51,1c.25.65,1.47.75,1.13,1.65-2.41-1.44-4.11-5-7.84-5.16,1.24,1.19,2.7,2.31,4,3.51s3,2.42,3.31,4c-3.15-2.49-4.89-6.39-9.7-7.22,2,1.9,4.45,3.26,5.78,5.78-2-1.17-4-4.68-7-5.16.94,1.86,2.72,2.93,4.13,4.33s3.17,2.68,3.71,4.85c-2.74-2.49-5-6.31-8.77-8.15a2.93,2.93,0,0,0,.62,1.76c2.24,2.83,5.48,4.61,7.33,7.73C98.6,17.49,97,12.46,92.7,11c1.91,3.8,6.43,6.4,8,9.8-1.73-.8-3-2.69-4.33-4.23a31.69,31.69,0,0,0-4.23-4.33c0,.78.89,1.29.31,2.06a65.88,65.88,0,0,1,6.6,7.53c-2.23-.78-3-2.85-4.64-4.64s-3.36-3-4.13-4.95c-.11-.23.78.77.93.62-.15-2.81-2.33-3.58-4.33-4.54.81,1.42,2.26,2.2,2.78,3.92-1.21-1.1-3.28-3.11-5.57-3.82,1.68,3.07,5.7,4.35,6.6,7.84C88,13.3,85.6,10,81.15,8.74A89.3,89.3,0,0,1,95.28,23.8c-2-.81-2.94-2.57-4.33-4.23-1-1.13-1.91-2.33-2.89-3.4-2.49-2.72-4.82-6.14-9-6.91C84.16,13.81,89.58,19.12,93,24.63c-1.76-.78-2.76-2.62-3.92-4-3.53-4.3-6.8-9.28-12.58-11.24A85,85,0,0,1,91.05,25.45c-1.94-.59-2.76-2.65-3.92-4.12s-2.42-3-3.71-4.44c-2.72-3-5.75-7-10.11-7.94,5.74,5,11.39,10.68,15.37,17.12-2-1-3.26-3.41-4.74-5.26C80.13,16.07,76.63,11.24,70.63,9A84.81,84.81,0,0,1,86.82,27.1c-1.62-.2-2-1.64-2.88-2.89C82,21.64,80,19.05,78.06,16.89c-2.9-3.18-5.42-6.46-9.91-7.74A84.69,84.69,0,0,1,85,28.34c-1.41,0-2-1.58-2.58-2.47a109.36,109.36,0,0,0-6.81-8.67C72.44,13.6,69.2,9.65,64.13,8A89,89,0,0,1,83.21,29.68c-.49-.13-.87-.36-1.34-.51a90.53,90.53,0,0,0-8.35-11.25c-3-3.42-6-7.31-10.63-9.07C69.47,15.4,76,22,80.94,30.2c-1.88-.87-2.75-2.74-3.92-4.33.2,0,.35-.07.42-.21a4.66,4.66,0,0,1-.93-.41c-4.66-5.87-8.74-12.86-16-15.79,4.74,4.31,9.59,9.05,13.1,14.24a7.84,7.84,0,0,0-1.34-.62C68,18.2,64.83,12.24,58.15,9.77a91.53,91.53,0,0,1,12,12.69c-.75-.14-1.06-.72-1.75-.93C64.64,17.2,61.61,12.19,55.78,10c4,3.8,8.58,8.05,11.34,12.38-5-3.71-7.35-10-13.82-12.17A93.49,93.49,0,0,1,64.65,22.36c-5.29-3.31-7.17-10-13.83-12A85.45,85.45,0,0,1,62.07,22.56c-5.2-3.43-7.21-10-13.82-12.06A88.3,88.3,0,0,1,59.49,22.67c-5.33-3.51-7.39-10.29-14.13-12.38A90.26,90.26,0,0,1,56.81,22.67c-2-.57-2.76-2.45-4-3.92-2.86-3.34-5.47-6.91-10-8.36,1.24,1.23,2.64,2.44,3.92,3.72s2.85,2.45,3.2,4.23C46.61,15.67,44.46,11,39.37,9.77c3.36,3.14,7.41,6.7,9.7,10.22-4.83-3.29-7-9.27-13.3-11,1.46,1.36,3.07,2.77,4.74,4.43s4.35,3.6,4.64,6C41.58,15.65,39,10.93,33.39,9.26A76,76,0,0,1,44.74,21.12c-5.1-3.29-7.05-9.73-13.62-11.55a81.21,81.21,0,0,1,11,11.65c-4.9-3.42-7.27-9.36-13.51-11.45,3.78,3.48,8.1,7.51,10.72,11.45-4.84-3.54-7.28-9.49-13.51-11.65,3.78,3.68,8,7.5,10.94,11.65C31.88,18,29.77,11.88,23.49,10c3.67,3.35,7.56,7,10.32,10.93-4.83-3.15-6.75-9.2-13-10.93,1.58,1.82,4,2.84,4.85,5.36-2.07-1.88-4.2-4.6-7.64-5.46,3.27,3.09,7,6.28,9.39,9.9-4.58-3-6.41-8.72-12.48-10.21,3.56,3.17,7.64,6.94,10.11,10.52-4.65-3-6.55-8.79-12.59-10.42A97.58,97.58,0,0,1,22.46,20c-4.77-2.91-6.63-8.71-12.69-10.32,3.43,3.27,7.3,6.66,9.9,10.42-4.59-2.8-6.18-8.6-12.17-10A90.68,90.68,0,0,1,17.09,20c-4.64-2.38-5.85-8.18-11.65-9.39,3,2.89,6.34,6,8.66,9.18C10.35,17.31,8.13,13.3,4.61,10.6ZM92.7,17.3a67.06,67.06,0,0,1,4.44,5.47C94.85,21.83,93.57,19.32,92.7,17.3Zm13.21-.1c-.15.09-.33.15-.31.41A3.3,3.3,0,0,1,104.05,15C104.6,15.83,105.4,16.37,105.91,17.2Zm3.3-2.27c-.6.56-1.49-.33-1.45-1.34A5.45,5.45,0,0,1,109.21,14.93ZM108,11.32c.84.47,2.67,1.94,2.78,2.79A5,5,0,0,1,108,11.32ZM125.2,36.59c0,.32.22.47.3.72-.37-.05-.85.31-1.13,0C124.65,37.07,124.76,36.67,125.2,36.59Zm2.57,0a5.23,5.23,0,0,1-.92.31c-.25-.44-.51-.87-.73-1.34A1.34,1.34,0,0,1,127.77,36.59ZM10.91,19.26C7.42,16.59,4.68,13.18,1.73,10c-.11,0-.13-.18,0-.21C4.93,12.65,8.7,16.07,10.91,19.26ZM1.31,13.8c.77.95,2,1.95,2.38,3C2.75,16,1.48,15,1.31,13.8Zm-.1-2a44,44,0,0,1,6.29,6.5A21.78,21.78,0,0,1,1.21,11.84Z"/><path class="cls-1" d="M96.62,26.59a5.49,5.49,0,0,1,4.54,4A35.46,35.46,0,0,0,96.62,26.59Z"/><path class="cls-1" d="M94.15,37.11c-2-2.78-4.48-5.7-6.4-8.25A11.81,11.81,0,0,1,94.15,37.11Z"/><path class="cls-1" d="M171.72,40.62a2.11,2.11,0,0,1-.31,2.37c-1.81-4.32-4.76-8-6.09-12.48C167.44,33,170.5,37.06,171.72,40.62Z"/><path class="cls-1" d="M153.15,46.39c.49,1.11,1.07,3,.41,4.33-2.42-5.82-6.28-11.67-7.84-18.36C148.16,36.63,151,41.58,153.15,46.39Z"/><path class="cls-1" d="M109,75.07c1.61,1.42,1.65,7.41-.1,8.35C109.49,81.3,108.74,77.53,109,75.07Z"/><path class="cls-1" d="M81.46,45.46c-.63-.4-.62-1.44-1.13-2,.75,6.83-9.13,11.83-13.52,7.12a6.21,6.21,0,0,1-1.75-4.74c.22.37.55,1.16.82,1.13a2.91,2.91,0,0,1-.2-3.3c.88,1.78.83,3.88,2,5.36a5.63,5.63,0,0,0,4.64,2.07c1.38-.19,2.82-1.42,3.92-2.27s2.88-1.82,3.2-3.1a5.71,5.71,0,0,0-2.48-5.88c.76,1.38,2,2.85,1.76,4.85A37.37,37.37,0,0,1,75.27,39c-.44.1-.73-.27-1,0,.09.26.28.41.31.73-.88.06-1.8-.37-2.58,0,.42.8-.87.58-.93,1.23-.15-.19-.15-.53-.41-.61-.25.2-.73.16-.83.51.09.26.29.41.31.72-.42.17-.69.48-1.13.62-.15-.22-.2-.55-.41-.72a4.65,4.65,0,0,0-.83.52,1.11,1.11,0,0,0,.31.62,4.1,4.1,0,0,1-1,1.23c0-.59-.44-.8-.52-1.34,2.63-2.12,5.21-4.28,9.91-4.33a19.49,19.49,0,0,1,2.37,2.17c-.44-1-1.06-1.83-1.45-2.89C79.47,39.27,81.84,41.44,81.46,45.46Z"/></g></g></svg>