<svg xmlns="http://www.w3.org/2000/svg" viewBox="0 0 120 40.64"><defs><style>.cls-1{fill:#fff;}.cls-2{opacity:0.8;}.cls-3{fill:#becac7;}</style></defs><title>logo</title><g id="Layer_2" data-name="Layer 2"><g id="Layer_1-2" data-name="Layer 1"><path class="cls-1" d="M16.22,26.34V26a3.14,3.14,0,0,0,.15-1,3.05,3.05,0,0,0-.26-1.11L15.79,23H11.12l-.31.91a1.7,1.7,0,0,0-.15.52c0,.31.22.39.5.44l.63.08v1.41H7.18v-.58a23.54,23.54,0,0,0,1.39-3.09l2.78-7.23a1.57,1.57,0,0,0,.16-.69c0-.2-.22-.35-.42-.37l-.63-.07V12.77h5.15a17.34,17.34,0,0,1,.81,2l2.17,6.69A14.35,14.35,0,0,0,20,24.61a1.35,1.35,0,0,0,.89.34v1.39Zm-1.93-8.21c-.24-.69-.57-1.69-.74-2.41-.2.72-.54,1.76-.78,2.46l-1,2.8H15.2Z"/><path class="cls-1" d="M33,26.34v-.19A10.21,10.21,0,0,0,33.54,22V20.39H28.41v3.46c0,.69.13.93.52,1l.48.08v1.41H24.55v-.19A24.77,24.77,0,0,0,25.13,20V15.64c0-1.2-.19-1.31-.76-1.37l-.69-.09V12.77H29v.28c-.5,1-.57,1.39-.57,4.84v.48h5.13V15.2c0-.63-.09-.85-.55-.93l-.47-.09V12.77h4.86v.28c-.52,1-.56,2.89-.56,5.13v5.67c0,.69.19.89.58,1l.55.11v1.41Z"/><path class="cls-1" d="M48.48,26.67c-4.33,0-6.74-2.69-6.74-6.78A7.07,7.07,0,0,1,49,12.44a8,8,0,0,1,4,1.09c0,.91.19,2.47.3,3.24h-1.5a3,3,0,0,0-3.21-2.09c-1.65,0-3.26,1.52-3.26,4.8s1.52,4.74,3.58,4.74a4.25,4.25,0,0,0,3.26-1.5L53.45,24A6.52,6.52,0,0,1,48.48,26.67Z"/><path class="cls-1" d="M74.82,26.34h-6v-.26a12.34,12.34,0,0,0,.5-4.28V16c0-1.5-.2-1.7-1-1.78l-.59-.07V12.77H74.8c2.85,0,4.63,1.17,4.63,3.47a3.24,3.24,0,0,1-2.32,3.11,3.39,3.39,0,0,1,2.49,2.91C79.6,24.67,78,26.34,74.82,26.34Zm-.95-11.68h-.76c-.17,0-.37,0-.61,0-.06.83-.06,1.76-.06,2.63v1.08h1.17c1.89,0,2.47-.8,2.47-2S75.13,14.66,73.87,14.66Zm0,5.67H72.44v2.13c0,1.32,0,1.65.19,1.84a1.14,1.14,0,0,0,.61.15c.28,0,.63,0,1,0,1.31,0,2-.59,2-2.07S75.39,20.33,73.87,20.33Z"/><path class="cls-1" d="M90.91,26.34h-6v-.26a12.34,12.34,0,0,0,.5-4.28V16c0-1.5-.19-1.7-1-1.78l-.59-.07V12.77h7.06c2.84,0,4.62,1.17,4.62,3.47a3.23,3.23,0,0,1-2.32,3.11,3.39,3.39,0,0,1,2.5,2.91C95.69,24.67,94.12,26.34,90.91,26.34ZM90,14.66h-.76c-.17,0-.37,0-.6,0-.07.83-.07,1.76-.07,2.63v1.08h1.17c1.89,0,2.48-.8,2.48-2S91.21,14.66,90,14.66Zm0,5.67H88.52v2.13c0,1.32,0,1.65.2,1.84a1.07,1.07,0,0,0,.6.15c.29,0,.63,0,1,0,1.3,0,2-.59,2-2.07S91.47,20.33,90,20.33Z"/><path class="cls-1" d="M111.62,28.73a16.4,16.4,0,0,1-6.15-1.5c-.45-.21-.84-.43-1.13-.58-3.23-.5-5.47-2.72-5.47-6.8,0-4.28,2.61-7.41,6.65-7.41,3.69,0,6.34,2.48,6.34,6.69,0,3.35-1.54,5.93-3.74,6.91a10,10,0,0,0,2.22.37c.72,0,.91-.07,1.22-.39l1.26.06ZM105.1,14.66c-1.3,0-2.88,1.37-2.88,4.62,0,4.09,1.49,5.22,3.45,5.22,1.3,0,2.82-1.5,2.82-4.78C108.49,15.68,107,14.66,105.1,14.66Z"/><g class="cls-2"><path class="cls-3" d="M59.75,37.66v1.19h.5V37.66c-.09-.12-.17-.25-.25-.38C59.92,37.41,59.84,37.54,59.75,37.66Z"/><path class="cls-3" d="M60.25,34.21V31.87h-.5V34l.39.27Z"/><path class="cls-3" d="M60.86,31.59a.25.25,0,0,0,.25-.25.25.25,0,0,0-.25-.25H59.14a.25.25,0,0,0-.25.25.25.25,0,0,0,.25.25Z"/><path class="cls-3" d="M60.86,30.57a.25.25,0,0,0,0-.5H59.14a.25.25,0,0,0,0,.5Z"/><path class="cls-3" d="M55.8,36.83c.51-.25,1-.51,1.5-.79a6.92,6.92,0,0,1-6.76-1.6.16.16,0,0,0-.1,0l-.07,0a1.15,1.15,0,0,0-.63.74,1.6,1.6,0,0,0,.17,1.3,2.86,2.86,0,0,0,1.86,1.11,7.13,7.13,0,0,0,1.9.18A15.33,15.33,0,0,0,55.8,36.83Z"/><path class="cls-3" d="M64.49,36.83a15.11,15.11,0,0,0,2.15.92,7.76,7.76,0,0,0,1.59-.19,2.86,2.86,0,0,0,1.86-1.11,1.6,1.6,0,0,0,.17-1.3,1.15,1.15,0,0,0-.63-.74l-.07,0a.16.16,0,0,0-.1,0,7,7,0,0,1-6.22,1.74C63.66,36.41,64.07,36.63,64.49,36.83Z"/><path class="cls-3" d="M48.69,38.24a5.76,5.76,0,0,0,3.84.59,13.26,13.26,0,0,0,3.62-1.3,35.42,35.42,0,0,0,3.74-2.14l-.45-.3a35.69,35.69,0,0,1-3.51,2,12.93,12.93,0,0,1-3.48,1.25,5.22,5.22,0,0,1-3.51-.53,3.35,3.35,0,0,1-1.69-2.89,2.38,2.38,0,0,1,2.13-2.26,1.76,1.76,0,0,1,1.28.46.25.25,0,0,0,.35,0,.23.23,0,0,0,0-.35,2.3,2.3,0,0,0-1.63-.59,2.88,2.88,0,0,0-2.6,2.74A3.76,3.76,0,0,0,48.69,38.24Z"/><path class="cls-3" d="M60.84,34.75a37,37,0,0,0,4.92-4.1.25.25,0,0,0-.18-.42.23.23,0,0,0-.17.07,36.67,36.67,0,0,1-5,4.15Z"/><path class="cls-3" d="M64.14,37.53a13.14,13.14,0,0,0,3.62,1.3,5.76,5.76,0,0,0,3.84-.59,3.76,3.76,0,0,0,1.93-3.34,2.88,2.88,0,0,0-2.61-2.74,2.33,2.33,0,0,0-1.63.59.24.24,0,0,0,0,.35.25.25,0,0,0,.35,0,1.76,1.76,0,0,1,1.28-.46A2.38,2.38,0,0,1,73,34.92a3.35,3.35,0,0,1-1.69,2.89,5.22,5.22,0,0,1-3.51.53,12.93,12.93,0,0,1-3.48-1.25,36.6,36.6,0,0,1-9.48-6.79.23.23,0,0,0-.17-.07.25.25,0,0,0-.18.42A37.12,37.12,0,0,0,64.14,37.53Z"/><path class="cls-3" d="M60.24,35.92a.25.25,0,0,0-.48,0A4.56,4.56,0,0,1,58,38.29a4.6,4.6,0,0,1-2.83.84.25.25,0,0,0,0,.49,5.05,5.05,0,0,0,3.13-.92,5.11,5.11,0,0,0,1.7-2,5.11,5.11,0,0,0,1.7,2,5.05,5.05,0,0,0,3.13.92.25.25,0,0,0,0-.49A4.6,4.6,0,0,1,62,38.29,4.56,4.56,0,0,1,60.24,35.92Z"/><path class="cls-3" d="M59.14,39.13a.25.25,0,0,0,0,.5h1.72a.25.25,0,0,0,0-.5Z"/><path class="cls-3" d="M59.14,40.15a.25.25,0,1,0,0,.49h1.72a.25.25,0,1,0,0-.49Z"/><path class="cls-3" d="M53.63,33.82a.79.79,0,1,0,0-1.58.79.79,0,1,0,0,1.58Z"/><path class="cls-3" d="M65.58,33a.79.79,0,0,0,.79.79.79.79,0,1,0,0-1.58A.79.79,0,0,0,65.58,33Z"/><path class="cls-3" d="M45.18,34.86a5.89,5.89,0,0,1-1,3,.25.25,0,0,0,.42.28,6.65,6.65,0,0,0,1-3.27v0a6.65,6.65,0,0,0-1-3.27.26.26,0,0,0-.21-.11.25.25,0,0,0-.14,0,.26.26,0,0,0-.07.35A5.89,5.89,0,0,1,45.18,34.86Z"/><path class="cls-3" d="M75.71,38.22a.26.26,0,0,0,.07-.35,5.89,5.89,0,0,1-1-3,5.89,5.89,0,0,1,1-3,.26.26,0,0,0-.07-.35.25.25,0,0,0-.14,0,.26.26,0,0,0-.21.11,6.65,6.65,0,0,0-1,3.27v0a6.65,6.65,0,0,0,1,3.27A.26.26,0,0,0,75.71,38.22Z"/><path class="cls-3" d="M5.68,34.93a6,6,0,0,1-1,3,.26.26,0,0,0,.08.35.25.25,0,0,0,.34-.08,6.39,6.39,0,0,0,1-3.27v0a6.39,6.39,0,0,0-1-3.27.26.26,0,0,0-.21-.11.2.2,0,0,0-.13,0,.25.25,0,0,0-.08.34A6.06,6.06,0,0,1,5.68,34.93Z"/><path class="cls-3" d="M115.21,38.29a.26.26,0,0,0,.08-.35,6,6,0,0,1-1-3,6.06,6.06,0,0,1,1-3,.25.25,0,0,0-.08-.34.2.2,0,0,0-.13,0,.26.26,0,0,0-.21.11,6.39,6.39,0,0,0-1,3.27v0a6.39,6.39,0,0,0,1,3.27A.25.25,0,0,0,115.21,38.29Z"/><path class="cls-3" d="M43.35,36.31a.25.25,0,0,0,.3-.18,7.52,7.52,0,0,0,.17-1.25v0a7.52,7.52,0,0,0-.17-1.25.25.25,0,0,0-.25-.19h0a.24.24,0,0,0-.19.29,6.52,6.52,0,0,1,.17,1.15A6.25,6.25,0,0,1,43.16,36,.25.25,0,0,0,43.35,36.31Z"/><path class="cls-3" d="M76.65,36.31a.25.25,0,0,0,.19-.3,6.25,6.25,0,0,1-.17-1.15,6.52,6.52,0,0,1,.17-1.15.24.24,0,0,0-.19-.29H76.6a.25.25,0,0,0-.25.19,7.52,7.52,0,0,0-.17,1.25v0a7.52,7.52,0,0,0,.17,1.25A.25.25,0,0,0,76.65,36.31Z"/><path class="cls-3" d="M10.54,34.93a.51.51,0,0,1-.06.25H42.33a.25.25,0,0,0,.25-.25.25.25,0,0,0-.25-.25H10.48A.54.54,0,0,1,10.54,34.93Z"/><path class="cls-3" d="M77.67,35.18h31.85a.51.51,0,0,1-.06-.25.54.54,0,0,1,.06-.25H77.67a.25.25,0,0,0-.25.25A.25.25,0,0,0,77.67,35.18Z"/><path class="cls-3" d="M7,36.77a.25.25,0,0,0,.35,0,4.72,4.72,0,0,1,2.72-1.57.27.27,0,0,0,.2-.25.25.25,0,0,0-.2-.24,4.77,4.77,0,0,1-2.72-1.57A.25.25,0,0,0,7.15,33a.27.27,0,0,0-.16.06.26.26,0,0,0,0,.35,5.36,5.36,0,0,0,2.13,1.49A5.36,5.36,0,0,0,7,36.42.26.26,0,0,0,7,36.77Z"/><path class="cls-3" d="M109.94,34.69a.25.25,0,0,0-.2.24.26.26,0,0,0,.2.25,4.72,4.72,0,0,1,2.72,1.57.25.25,0,0,0,.35,0,.26.26,0,0,0,0-.35,5.36,5.36,0,0,0-2.13-1.49A5.36,5.36,0,0,0,113,33.44a.26.26,0,0,0,0-.35.27.27,0,0,0-.16-.06.25.25,0,0,0-.19.09A4.77,4.77,0,0,1,109.94,34.69Z"/><path class="cls-3" d="M3.46,37.45a.25.25,0,0,0,.29-.12,6.89,6.89,0,0,0,.69-2.66v0A7,7,0,0,0,4,32.56a.25.25,0,0,0-.23-.16H3.71A6.46,6.46,0,0,0,.05,34.82a.23.23,0,0,0,0,.29A6.45,6.45,0,0,0,3.46,37.45Z"/><path class="cls-3" d="M116.54,37.45A6.45,6.45,0,0,0,120,35.11a.23.23,0,0,0,0-.29,6.46,6.46,0,0,0-3.66-2.41h-.06a.25.25,0,0,0-.23.16,7,7,0,0,0-.44,2.09v0a6.89,6.89,0,0,0,.69,2.66A.25.25,0,0,0,116.54,37.45Z"/></g><g class="cls-2"><path class="cls-3" d="M59.77,8.49v1a.23.23,0,1,0,.46,0V8.42L60,8.15C60,8.27,59.86,8.38,59.77,8.49Z"/><path class="cls-3" d="M60.26,1.38V.23a.23.23,0,1,0-.46,0V1.38c.08.12.16.24.23.36C60.1,1.62,60.18,1.5,60.26,1.38Z"/><path class="cls-3" d="M68.1,2.71A4.76,4.76,0,0,0,65,1.89a2.86,2.86,0,0,1,1.76,1.37c.1.19.17.4.26.61a4.85,4.85,0,0,0,.34.78,1.51,1.51,0,0,0,1.2.81l.19,0A1,1,0,0,0,69.44,5a1.46,1.46,0,0,0,.22-.81A8.84,8.84,0,0,0,68.1,2.71Z"/><path class="cls-3" d="M55,1.89A4.79,4.79,0,0,0,52,2.71,8.79,8.79,0,0,0,50.4,4.16a1.38,1.38,0,0,0,.22.81,1,1,0,0,0,.68.47l.18,0a1.51,1.51,0,0,0,1.2-.81A4.91,4.91,0,0,0,53,3.87a5.59,5.59,0,0,1,.26-.61A2.85,2.85,0,0,1,55,1.89Z"/><path class="cls-3" d="M64.59,3.65A1.68,1.68,0,0,0,63.37,4a1.36,1.36,0,0,0-.53.9,1.16,1.16,0,0,0,.19.85,1,1,0,0,0,.62.4A.87.87,0,0,0,64.26,6a1,1,0,0,0,.21-.21.75.75,0,0,0,.1-.53.59.59,0,0,0-.26-.38.53.53,0,0,0-.39-.09.45.45,0,0,0-.3.18.44.44,0,0,0-.09.31.46.46,0,0,0,.15.26.38.38,0,0,0,.25.08l.11,0,0,0a.34.34,0,0,1-.26,0,.53.53,0,0,1-.33-.21A.76.76,0,0,1,63.29,5a1,1,0,0,1,.36-.6,1.24,1.24,0,0,1,.89-.24,1.59,1.59,0,0,1,1,.58,2,2,0,0,1-.16,2.56,2.46,2.46,0,0,1-2.64.51A3.1,3.1,0,0,1,61,5.57a.25.25,0,0,0-.28-.18.25.25,0,0,0-.18.28,3.55,3.55,0,0,0,2,2.52,3.1,3.1,0,0,0,1.12.22,2.8,2.8,0,0,0,2-.84,2.49,2.49,0,0,0,.18-3.18A2.06,2.06,0,0,0,64.59,3.65Z"/><path class="cls-3" d="M59.3,5.39a.24.24,0,0,0-.27.18,3.09,3.09,0,0,1-1.76,2.19,2.47,2.47,0,0,1-2.64-.51,2,2,0,0,1-.15-2.56,1.59,1.59,0,0,1,1-.58,1.21,1.21,0,0,1,.88.24.92.92,0,0,1,.36.6.67.67,0,0,1-.12.51.51.51,0,0,1-.32.21.37.37,0,0,1-.27,0l0,0,.1,0a.38.38,0,0,0,.26-.08.4.4,0,0,0,.14-.26A.39.39,0,0,0,56.44,5a.45.45,0,0,0-.31-.18.55.55,0,0,0-.39.09.61.61,0,0,0-.25.38A.71.71,0,0,0,55.8,6a.87.87,0,0,0,.61.12,1,1,0,0,0,.61-.4,1.12,1.12,0,0,0,.2-.85,1.41,1.41,0,0,0-.54-.9,1.66,1.66,0,0,0-1.22-.33,2,2,0,0,0-1.34.74,2.48,2.48,0,0,0,.17,3.18,2.84,2.84,0,0,0,2,.84,3.1,3.1,0,0,0,1.12-.22,3.56,3.56,0,0,0,2-2.52A.24.24,0,0,0,59.3,5.39Z"/><path class="cls-3" d="M75,2.69a1.2,1.2,0,0,0-.87.3,1,1,0,0,0-.35.69,1.93,1.93,0,0,0,0,.24.92.92,0,0,0,.36.55.74.74,0,0,0,.54.12.6.6,0,0,0,.41-.24.55.55,0,0,0,.11-.41.53.53,0,0,0-.2-.37.49.49,0,0,0-.35-.11.48.48,0,0,0-.3.15.45.45,0,0,0-.1.27.43.43,0,0,0,0,0,.21.21,0,0,1,0-.11.56.56,0,0,1,.19-.38A.76.76,0,0,1,75,3.15a1,1,0,0,1,.69.32A1.28,1.28,0,0,1,76,4.4a1.67,1.67,0,0,1-.5,1.19A2.43,2.43,0,0,1,73,6,6.26,6.26,0,0,1,70.7,4.22c-.11-.12-.22-.25-.34-.37A10.92,10.92,0,0,0,68.52,2.1a5.48,5.48,0,0,0-7.47,1.21.24.24,0,0,0,0,.33.25.25,0,0,0,.33-.05,5,5,0,0,1,6.83-1.1A10,10,0,0,1,70,4.16l.34.38A6.71,6.71,0,0,0,72.81,6.4a3.37,3.37,0,0,0,1.2.22,2.57,2.57,0,0,0,1.85-.7,2.21,2.21,0,0,0,.64-1.51A1.83,1.83,0,0,0,76,3.15,1.47,1.47,0,0,0,75,2.69Z"/><path class="cls-3" d="M51.8,2.49a5,5,0,0,1,6.84,1.1.24.24,0,0,0,.32.05.23.23,0,0,0,0-.33A5.48,5.48,0,0,0,51.54,2.1a11,11,0,0,0-1.85,1.75c-.11.12-.22.25-.34.37A6.23,6.23,0,0,1,47.08,6a2.45,2.45,0,0,1-2.56-.38A1.76,1.76,0,0,1,44,4.4a1.37,1.37,0,0,1,.36-.93,1,1,0,0,1,.7-.32.76.76,0,0,1,.54.19.56.56,0,0,1,.19.38.41.41,0,0,1,0,.11.11.11,0,0,1,0,0,.39.39,0,0,0-.1-.27.46.46,0,0,0-.29-.15.52.52,0,0,0-.36.11.62.62,0,0,0-.2.37.55.55,0,0,0,.11.41.62.62,0,0,0,.42.24.74.74,0,0,0,.54-.12.91.91,0,0,0,.35-.55.65.65,0,0,0,0-.24A1,1,0,0,0,45.92,3a1.2,1.2,0,0,0-.87-.3,1.51,1.51,0,0,0-1,.46,1.78,1.78,0,0,0-.48,1.26,2.2,2.2,0,0,0,.63,1.51,2.6,2.6,0,0,0,1.85.7,3.33,3.33,0,0,0,1.2-.22,6.55,6.55,0,0,0,2.45-1.86c.12-.13.23-.26.35-.38A10.29,10.29,0,0,1,51.8,2.49Z"/><path class="cls-3" d="M57.24.46A3.6,3.6,0,0,1,59.8,3.12.23.23,0,0,0,60,3.3a.23.23,0,0,0,.23-.18A3.57,3.57,0,0,1,62.82.46.22.22,0,0,0,63,.18.22.22,0,0,0,62.7,0,4.06,4.06,0,0,0,60,2.32,4.07,4.07,0,0,0,57.35,0a.23.23,0,0,0-.28.17A.23.23,0,0,0,57.24.46Z"/><path class="cls-3" d="M61.65,8.73A3.69,3.69,0,0,1,60.24,7,.23.23,0,0,0,60,6.85a.24.24,0,0,0-.22.15A3.57,3.57,0,0,1,58.4,8.73a.24.24,0,0,0-.06.32.23.23,0,0,0,.32.07A4.14,4.14,0,0,0,60,7.64,4.05,4.05,0,0,0,61.4,9.12a.19.19,0,0,0,.12,0,.23.23,0,0,0,.13-.43Z"/><path class="cls-3" d="M58.3,4.57a.23.23,0,0,0,.23.24h3a.24.24,0,1,0,0-.47h-3A.23.23,0,0,0,58.3,4.57Z"/><path class="cls-3" d="M70,6.35a.66.66,0,1,0,.66.66A.66.66,0,0,0,70,6.35Z"/><path class="cls-3" d="M50,6.35a.66.66,0,1,0,.66.66A.66.66,0,0,0,50,6.35Z"/><path class="cls-3" d="M77.82,4.61a5.6,5.6,0,0,1,.9-2.82.23.23,0,1,0-.39-.25,6.12,6.12,0,0,0-1,3.06v0a6.12,6.12,0,0,0,1,3.06.24.24,0,0,0,.19.1.2.2,0,0,0,.13,0,.23.23,0,0,0,.07-.32A5.6,5.6,0,0,1,77.82,4.61Z"/><path class="cls-3" d="M41.35,1.47a.23.23,0,0,0-.07.32,5.6,5.6,0,0,1,.9,2.82,5.6,5.6,0,0,1-.9,2.81.23.23,0,0,0,.07.32.2.2,0,0,0,.13,0,.24.24,0,0,0,.19-.1,6.12,6.12,0,0,0,1-3.06v0a6.12,6.12,0,0,0-1-3.06A.23.23,0,0,0,41.35,1.47Z"/><path class="cls-3" d="M114.77,4.54a5.7,5.7,0,0,1,.9-2.81.24.24,0,0,0-.06-.32.25.25,0,0,0-.33.06,6.11,6.11,0,0,0-1,3.06v0a6.11,6.11,0,0,0,1,3.06.24.24,0,0,0,.2.11.22.22,0,0,0,.13,0,.24.24,0,0,0,.06-.32A5.7,5.7,0,0,1,114.77,4.54Z"/><path class="cls-3" d="M4.39,1.41a.24.24,0,0,0-.06.32,5.7,5.7,0,0,1,.9,2.81,5.7,5.7,0,0,1-.9,2.82.24.24,0,0,0,.06.32.22.22,0,0,0,.13,0,.24.24,0,0,0,.2-.11,6.11,6.11,0,0,0,1-3.06v0a6.11,6.11,0,0,0-1-3.06A.25.25,0,0,0,4.39,1.41Z"/><path class="cls-3" d="M79.54,3.25a.23.23,0,0,0-.28.17,5.89,5.89,0,0,0-.17,1.18v0a5.8,5.8,0,0,0,.17,1.17.22.22,0,0,0,.22.18h.06a.23.23,0,0,0,.17-.28,5.53,5.53,0,0,1-.16-1.07,5.52,5.52,0,0,1,.16-1.08A.24.24,0,0,0,79.54,3.25Z"/><path class="cls-3" d="M40.46,3.25a.24.24,0,0,0-.17.28,5.52,5.52,0,0,1,.16,1.08,5.53,5.53,0,0,1-.16,1.07.23.23,0,0,0,.17.28h.06a.22.22,0,0,0,.22-.18,5.8,5.8,0,0,0,.17-1.17v0a5.89,5.89,0,0,0-.17-1.18A.23.23,0,0,0,40.46,3.25Z"/><path class="cls-3" d="M110.22,4.54a.46.46,0,0,1,.06-.23H80.49a.23.23,0,0,0-.23.23.23.23,0,0,0,.23.24h29.79A.48.48,0,0,1,110.22,4.54Z"/><path class="cls-3" d="M39.51,4.31H9.72a.46.46,0,0,1,.06.23.48.48,0,0,1-.06.24H39.51a.23.23,0,0,0,.23-.24A.23.23,0,0,0,39.51,4.31Z"/><path class="cls-3" d="M113.54,2.82a.24.24,0,0,0-.33,0,4.39,4.39,0,0,1-2.53,1.46.24.24,0,0,0-.19.23.24.24,0,0,0,.19.23,4.46,4.46,0,0,1,2.53,1.47.27.27,0,0,0,.18.08.22.22,0,0,0,.15-.06.22.22,0,0,0,0-.32,5,5,0,0,0-2-1.4,4.93,4.93,0,0,0,2-1.39A.24.24,0,0,0,113.54,2.82Z"/><path class="cls-3" d="M9.32,4.77a.24.24,0,0,0,.19-.23.24.24,0,0,0-.19-.23A4.39,4.39,0,0,1,6.79,2.85a.23.23,0,1,0-.36.3,4.93,4.93,0,0,0,2,1.39,5,5,0,0,0-2,1.4.22.22,0,0,0,0,.32.22.22,0,0,0,.15.06.27.27,0,0,0,.18-.08A4.46,4.46,0,0,1,9.32,4.77Z"/><path class="cls-3" d="M116.83,2.26a.16.16,0,0,0-.18.08A6.21,6.21,0,0,0,116,4.79h0a6,6,0,0,0,.4,1.93.15.15,0,0,0,.14.1h0A6,6,0,0,0,120,4.6a.15.15,0,0,0,0-.18A6.09,6.09,0,0,0,116.83,2.26Z"/><path class="cls-3" d="M3.17,2.26A6.09,6.09,0,0,0,0,4.42.15.15,0,0,0,0,4.6,6,6,0,0,0,3.4,6.82h0a.15.15,0,0,0,.14-.1A6,6,0,0,0,4,4.8H4a6.21,6.21,0,0,0-.63-2.45A.16.16,0,0,0,3.17,2.26Z"/></g></g></g></svg>